<svg width="24" height="24" viewBox="0 0 24 24" fill="none" xmlns="http://www.w3.org/2000/svg">
<path fill-rule="evenodd" clip-rule="evenodd" d="M6.865 20.583C5.40264 19.7098 4.18864 18.4761 3.339 17C2.48643 15.5272 2.02544 13.8605 2 12.159L2.145 12.187C5.094 12.768 8.449 11.718 11.206 10.025C11.5693 9.8023 11.9243 9.56697 12.271 9.31897C12.684 9.83497 13.054 10.359 13.351 10.875C13.726 11.522 14.064 12.292 14.366 13.115C13.8473 13.3663 13.3447 13.6403 12.858 13.937C10.066 15.636 7.684 18.113 6.866 20.581L6.865 20.583ZM16.26 21.048C15.0074 21.6376 13.646 21.9607 12.262 21.9969C10.8781 22.033 9.50167 21.7814 8.22 21.258L8.289 21.054C8.952 19.052 11.009 16.817 13.637 15.218C14.0317 14.978 14.4337 14.7556 14.843 14.551C15.095 15.381 15.314 16.222 15.498 17.013C15.774 18.2032 16.0072 19.403 16.197 20.61L16.205 20.663L16.207 20.675V20.679L16.26 21.048Z" fill="white"/>
<path d="M16.2258 13.9429C18.1128 13.2229 20.0368 12.9469 21.7028 13.3129L21.9068 13.3579C21.7859 14.2425 21.5471 15.1068 21.1968 15.9279C20.4535 17.675 19.2259 19.173 17.6588 20.2449L17.6458 20.1659C17.4568 18.9938 17.2276 17.8284 16.9588 16.6719C16.7467 15.7536 16.5022 14.844 16.2258 13.9429ZM13.4528 8.39694C15.1808 6.92794 16.5398 5.18694 17.1248 3.44794L17.1348 3.41794C18.5967 4.291 19.8103 5.52426 20.6598 6.99994C21.5133 8.47275 21.9747 10.1399 21.9998 11.8419C20.0048 11.4109 17.8138 11.7419 15.7438 12.5219C15.4238 11.6579 15.0588 10.8349 14.6498 10.1249C14.2947 9.51976 13.8946 8.94213 13.4528 8.39694ZM8.31882 3.45394C8.12051 3.29678 7.9205 3.14177 7.71882 2.98894L7.69582 2.97294C9.40579 2.15446 11.314 1.84152 13.1958 2.07094C14.0828 2.17794 14.9528 2.40394 15.7798 2.74094L15.7028 2.96994C15.2258 4.38794 14.0528 5.91994 12.4748 7.25994C11.7756 6.50494 11.0405 5.7841 10.2718 5.09994C9.638 4.53128 8.98703 3.98203 8.31982 3.45294M10.4198 8.74694C7.83382 10.3349 4.86982 11.1959 2.43282 10.7159L2.09082 10.6479C2.27756 9.27807 2.74632 7.9618 3.4675 6.78226C4.18869 5.60271 5.14663 4.58553 6.28082 3.79494L6.60882 4.03394L6.61082 4.03494L6.62082 4.04194L6.65982 4.07094L6.81382 4.18594C7.65912 4.82972 8.47844 5.50692 9.26982 6.21594C9.92982 6.80794 10.6278 7.47594 11.2828 8.18094C11.0028 8.37627 10.7152 8.56494 10.4198 8.74694Z" fill="white"/>
</svg>
