<svg width="24" height="24" viewBox="0 0 24 24" fill="none" xmlns="http://www.w3.org/2000/svg">
<path d="M19.0702 4.93004C17.1841 3.10846 14.6581 2.10052 12.0362 2.1233C9.41419 2.14609 6.90606 3.19778 5.05198 5.05186C3.1979 6.90594 2.14621 9.41406 2.12342 12.036C2.10064 14.658 3.10858 17.184 4.93017 19.07C6.81619 20.8916 9.34221 21.8996 11.9642 21.8768C14.5861 21.854 17.0943 20.8023 18.9484 18.9482C20.8024 17.0941 21.8541 14.586 21.8769 11.9641C21.8997 9.34209 20.8917 6.81606 19.0702 4.93004ZM6.34017 6.34004C7.46685 5.21289 8.90452 4.44794 10.4688 4.14327C12.0332 3.8386 13.6528 4.0081 15.1202 4.63004L14.8302 4.93004L15.5402 5.64004L16.0602 5.11004C16.3496 5.2857 16.63 5.47594 16.9002 5.68004L5.68017 16.9C5.47607 16.6299 5.28582 16.3495 5.11017 16.06L5.64017 15.54L4.93017 14.83L4.64017 15.12C4.01698 13.6537 3.84586 12.0346 4.14874 10.4703C4.45161 8.90605 5.21469 7.46785 6.34017 6.34004ZM17.6602 17.66C16.5335 18.7872 15.0958 19.5522 13.5315 19.8568C11.9672 20.1615 10.3475 19.992 8.88017 19.37L9.17017 19.07L8.46017 18.36L7.94017 18.89C7.6507 18.7144 7.37033 18.5241 7.10017 18.32L18.3202 7.10004C18.5243 7.37021 18.7145 7.65057 18.8902 7.94004L18.3602 8.46004L19.0702 9.17004L19.3602 8.88004C19.9834 10.3464 20.1545 11.9655 19.8516 13.5298C19.5487 15.094 18.7856 16.5322 17.6602 17.66ZM11.2902 15.54L12.0002 16.24L10.5902 17.66L9.88017 17L11.2902 15.54ZM14.1202 12.71L14.8302 13.41L13.4102 14.83L12.7102 14.12L14.1202 12.71ZM17.0002 9.88004L17.7102 10.59L16.2402 12L15.5402 11.29L17.0002 9.88004ZM12.7102 8.46004L12.0002 7.76004L13.4102 6.34004L14.1202 7.05004L12.7102 8.46004ZM9.88017 11.29L9.17017 10.59L10.5902 9.17004L11.2902 9.88004L9.88017 11.29ZM7.05017 14.12L6.34017 13.41L7.76017 12L8.46017 12.71L7.05017 14.12Z" fill="white"/>
</svg>
