<svg width="24" height="24" viewBox="0 0 24 24" fill="none" xmlns="http://www.w3.org/2000/svg">
<path d="M19.0711 4.92898C18.1454 3.99622 17.0439 3.25628 15.8303 2.75198C14.6168 2.24768 13.3153 1.98902 12.0011 1.99098C10.6866 1.98876 9.38475 2.24728 8.17084 2.75159C6.95693 3.2559 5.8551 3.99598 4.92913 4.92898C1.03013 8.82698 1.03013 15.172 4.92913 19.071C5.85522 20.0041 6.95721 20.7442 8.1713 21.2486C9.38539 21.7529 10.6875 22.0113 12.0021 22.009C13.3162 22.0111 14.6177 21.7526 15.8312 21.2484C17.0448 20.7443 18.1463 20.0046 19.0721 19.072C22.9711 15.174 22.9711 8.82898 19.0711 4.92898ZM12.1811 3.99998H11.8221C11.8831 3.99898 11.9411 3.99098 12.0021 3.99098C12.0631 3.99098 12.1201 3.99898 12.1811 3.99998ZM18.2431 17H16.0001L14.7421 19.516C13.8643 19.8393 12.9366 20.0062 12.0011 20.009C11.0639 20.0064 10.1345 19.8392 9.25513 19.515L8.00013 17.01H5.76513C4.94057 15.9849 4.38294 14.7713 4.14213 13.478L6.00013 11L4.78413 8.56698C5.17324 7.74221 5.7005 6.99004 6.34313 6.34298C7.24406 5.43922 8.34812 4.7641 9.56313 4.37398L12.0001 5.99998L14.4381 4.37498C15.653 4.76481 16.7571 5.43959 17.6581 6.34298C18.3001 6.98921 18.827 7.74035 19.2161 8.56398L18.0001 11L19.8581 13.478C19.6185 14.7672 19.0637 15.9771 18.2431 17Z" fill="black"/>
<path d="M8.5 11L10 15H14L15.5 11L12 8.5L8.5 11Z" fill="black"/>
</svg>
