<svg width="32" height="32" viewBox="0 0 32 32" fill="none" xmlns="http://www.w3.org/2000/svg">
<g clip-path="url(#clip0_774_2750)">
<path d="M26.3934 21.637C26.9234 21.6366 27.4316 21.426 27.8064 21.0512C28.1811 20.6764 28.3918 20.1682 28.3921 19.6382L28.4006 12.3701C28.3981 11.8404 28.1883 11.3328 27.8161 10.9559C27.4408 10.5812 26.9321 10.371 26.4019 10.3713L5.61381 10.3609C5.08162 10.3623 4.57162 10.5743 4.19531 10.9506C3.81899 11.3269 3.60698 11.8369 3.60562 12.3691L3.61505 19.6382C3.61345 19.9011 3.66405 20.1618 3.76393 20.405C3.86381 20.6482 4.01097 20.8692 4.1969 21.0551C4.38282 21.241 4.6038 21.3882 4.84702 21.4881C5.09025 21.588 5.35088 21.6386 5.61381 21.637H26.3934ZM24.0741 17.2058C24.0744 17.1178 24.0574 17.0305 24.0238 16.9492C23.9903 16.8678 23.941 16.7938 23.8788 16.7316C23.8166 16.6694 23.7426 16.6201 23.6613 16.5866C23.5799 16.5531 23.4927 16.536 23.4047 16.5364C23.2294 16.5436 23.0633 16.6164 22.9393 16.7404C22.8153 16.8644 22.7425 17.0305 22.7353 17.2058C22.7447 18.2523 22.7447 19.2705 22.7258 20.3076L20.3688 20.3076L20.3688 18.6105C20.371 18.5233 20.3554 18.4365 20.323 18.3554C20.2907 18.2744 20.2421 18.2007 20.1804 18.139C20.1187 18.0773 20.045 18.0287 19.964 17.9964C19.8829 17.964 19.7961 17.9484 19.7088 17.9506C19.6208 17.9502 19.5336 17.9673 19.4523 18.0008C19.3709 18.0343 19.2969 18.0836 19.2347 18.1458C19.1725 18.2081 19.1232 18.282 19.0897 18.3634C19.0562 18.4448 19.0391 18.532 19.0395 18.62C19.0489 19.1762 19.0395 19.7513 19.03 20.3076H16.673L16.6636 17.2058C16.6618 17.0319 16.5915 16.8657 16.4679 16.7434C16.3443 16.621 16.1775 16.5524 16.0036 16.5524C15.8297 16.5524 15.6628 16.621 15.5393 16.7434C15.4157 16.8657 15.3454 17.0319 15.3436 17.2058C15.3342 18.2523 15.3342 19.2705 15.3342 20.3076L12.9772 20.3076V18.6105C12.9711 18.4326 12.8969 18.2638 12.7698 18.1391C12.6475 18.0154 12.4817 17.9443 12.3078 17.9412C12.1314 17.9449 11.9633 18.0166 11.8386 18.1413C11.7138 18.2661 11.6421 18.4342 11.6384 18.6105V20.3076L9.26249 20.3076L9.27192 17.2058C9.27192 17.1179 9.25461 17.0308 9.22097 16.9496C9.18733 16.8684 9.13802 16.7946 9.07586 16.7324C9.0137 16.6703 8.93991 16.621 8.85869 16.5873C8.77748 16.5537 8.69043 16.5364 8.60253 16.5364C8.51462 16.5364 8.42757 16.5537 8.34636 16.5873C8.26514 16.621 8.19135 16.6703 8.12919 16.7324C8.06703 16.7946 8.01772 16.8684 7.98408 16.9496C7.95044 17.0308 7.93313 17.1179 7.93313 17.2058C7.94256 18.2523 7.94256 19.2705 7.9237 20.3076H5.60438C5.42989 20.3059 5.26304 20.2358 5.13964 20.1124C5.01625 19.989 4.94616 19.8221 4.94441 19.6476L4.94441 12.3691C4.94405 12.2811 4.96112 12.1939 4.99463 12.1125C5.02815 12.0312 5.07744 11.9572 5.13967 11.895C5.2019 11.8328 5.27584 11.7835 5.35722 11.75C5.4386 11.7164 5.5258 11.6994 5.61381 11.6997L26.3934 11.6997C26.4827 11.6988 26.5713 11.7159 26.6539 11.7499C26.7365 11.7839 26.8114 11.8342 26.8742 11.8977C26.9968 12.0238 27.0646 12.1933 27.0628 12.3691L27.0628 19.6476C27.0577 19.8211 26.9866 19.986 26.8639 20.1087C26.7412 20.2314 26.5763 20.3026 26.4028 20.3076L24.0646 20.3076L24.0741 17.2058Z" fill="#999999"/>
<path d="M25.1863 17.2534L25.2617 17.2534C25.2523 17.2628 25.2523 17.2628 25.2334 17.2628C25.2146 17.2628 25.1957 17.2628 25.1863 17.2534Z" fill="#999999"/>
</g>
<defs>
<clipPath id="clip0_774_2750">
<rect width="32.0001" height="32.0001" fill="white"/>
</clipPath>
</defs>
</svg>
