<svg width="26" height="26" viewBox="0 0 26 26" fill="none" xmlns="http://www.w3.org/2000/svg">
<path d="M23.433 17.8217H8.31289L9.07207 16.2754L21.6861 16.2525C22.1127 16.2525 22.4783 15.9479 22.5545 15.5264L24.3014 5.74844C24.3471 5.49199 24.2785 5.22793 24.1109 5.02734C24.0281 4.92863 23.9248 4.84911 23.8082 4.7943C23.6916 4.7395 23.5644 4.71072 23.4355 4.70996L7.38867 4.65664L7.25157 4.01172C7.16524 3.60039 6.79453 3.30078 6.37305 3.30078H2.4502C2.21249 3.30078 1.98451 3.39521 1.81643 3.5633C1.64834 3.73138 1.55391 3.95936 1.55391 4.19707C1.55391 4.43478 1.64834 4.66276 1.81643 4.83084C1.98451 4.99893 2.21249 5.09336 2.4502 5.09336H5.64688L6.2461 7.94219L7.72129 15.0846L5.82207 18.1848C5.72344 18.3179 5.66404 18.476 5.65058 18.6411C5.63712 18.8062 5.67014 18.9718 5.7459 19.1191C5.89824 19.4213 6.20547 19.6117 6.54571 19.6117H8.14024C7.8003 20.0632 7.61669 20.6132 7.61719 21.1783C7.61719 22.6154 8.78516 23.7834 10.2223 23.7834C11.6594 23.7834 12.8273 22.6154 12.8273 21.1783C12.8273 20.6121 12.6395 20.0611 12.3043 19.6117H16.3947C16.0548 20.0632 15.8712 20.6132 15.8717 21.1783C15.8717 22.6154 17.0396 23.7834 18.4768 23.7834C19.9139 23.7834 21.0818 22.6154 21.0818 21.1783C21.0818 20.6121 20.8939 20.0611 20.5588 19.6117H23.4355C23.9281 19.6117 24.3318 19.2105 24.3318 18.7154C24.3304 18.478 24.235 18.2507 24.0666 18.0833C23.8983 17.9159 23.6705 17.8218 23.433 17.8217ZM7.76192 6.42383L22.3818 6.47207L20.9498 14.4904L9.46563 14.5107L7.76192 6.42383ZM10.2223 21.9807C9.78047 21.9807 9.41992 21.6201 9.41992 21.1783C9.41992 20.7365 9.78047 20.376 10.2223 20.376C10.6641 20.376 11.0246 20.7365 11.0246 21.1783C11.0246 21.3911 10.9401 21.5952 10.7896 21.7457C10.6391 21.8961 10.4351 21.9807 10.2223 21.9807ZM18.4768 21.9807C18.035 21.9807 17.6744 21.6201 17.6744 21.1783C17.6744 20.7365 18.035 20.376 18.4768 20.376C18.9186 20.376 19.2791 20.7365 19.2791 21.1783C19.2791 21.3911 19.1946 21.5952 19.0441 21.7457C18.8936 21.8961 18.6896 21.9807 18.4768 21.9807Z" fill="black"/>
</svg>
